<mxfile host="app.diagrams.net" modified="2024-01-07T18:39:36.870Z" agent="Mozilla/5.0 (Windows NT 10.0; Win64; x64) AppleWebKit/537.36 (KHTML, like Gecko) Chrome/120.0.0.0 Safari/537.36 Edg/120.0.0.0" etag="5rI6z4QWdkvNP9kKWiLW" version="22.1.17" type="device">
  <diagram name="Страница — 1" id="87DvpeggIcASBzNXz0Op">
    <mxGraphModel dx="1053" dy="582" grid="0" gridSize="10" guides="1" tooltips="1" connect="1" arrows="1" fold="1" page="1" pageScale="1" pageWidth="1000" pageHeight="1000" math="0" shadow="0">
      <root>
        <mxCell id="0" />
        <mxCell id="1" parent="0" />
        <mxCell id="k3SaiDffp16Y4I0LHqBq-21" value="&lt;div style=&quot;box-sizing:border-box;width:100%;background:#e4e4e4;padding:2px;&quot;&gt;countries&lt;/div&gt;&lt;table border=&quot;1&quot; style=&quot;width: 100%; font-size: 1em; border: 1px solid rgb(255, 255, 255); border-collapse: collapse;&quot; cellpadding=&quot;2&quot; cellspacing=&quot;0&quot;&gt;&lt;tbody&gt;&lt;tr&gt;&lt;td&gt;PK&lt;/td&gt;&lt;td&gt;country_id&lt;/td&gt;&lt;td&gt;integer&lt;/td&gt;&lt;td&gt;NN&lt;/td&gt;&lt;/tr&gt;&lt;tr&gt;&lt;td&gt;&lt;br&gt;&lt;/td&gt;&lt;td&gt;country_name&lt;/td&gt;&lt;td&gt;text&lt;/td&gt;&lt;td&gt;NN&lt;/td&gt;&lt;/tr&gt;&lt;tr&gt;&lt;td&gt;&lt;/td&gt;&lt;td&gt;r&lt;/td&gt;&lt;td&gt;integer&lt;/td&gt;&lt;td&gt;NN&lt;/td&gt;&lt;/tr&gt;&lt;tr&gt;&lt;td&gt;&lt;br&gt;&lt;/td&gt;&lt;td&gt;g&lt;/td&gt;&lt;td&gt;integer&lt;/td&gt;&lt;td&gt;NN&lt;/td&gt;&lt;/tr&gt;&lt;tr&gt;&lt;td&gt;&lt;br&gt;&lt;/td&gt;&lt;td&gt;b&lt;/td&gt;&lt;td&gt;integer&lt;/td&gt;&lt;td&gt;NN&lt;/td&gt;&lt;/tr&gt;&lt;/tbody&gt;&lt;/table&gt;" style="verticalAlign=top;align=left;overflow=fill;html=1;whiteSpace=wrap;shadow=0;strokeColor=default;perimeterSpacing=0;strokeWidth=0;" vertex="1" parent="1">
          <mxGeometry x="394" y="136" width="220" height="121" as="geometry" />
        </mxCell>
        <mxCell id="k3SaiDffp16Y4I0LHqBq-22" value="&lt;div style=&quot;box-sizing:border-box;width:100%;background:#e4e4e4;padding:2px;&quot;&gt;infantry&lt;table style=&quot;background-color: rgb(255, 255, 255); font-size: 1em; width: 100%; border: 1px solid rgb(255, 255, 255); border-collapse: collapse;&quot; border=&quot;1&quot; cellpadding=&quot;2&quot; cellspacing=&quot;0&quot;&gt;&lt;tbody&gt;&lt;tr&gt;&lt;td&gt;PK&lt;/td&gt;&lt;td&gt;infantry_id&lt;/td&gt;&lt;td&gt;integer&lt;/td&gt;&lt;td&gt;NN&lt;/td&gt;&lt;/tr&gt;&lt;tr&gt;&lt;td&gt;&lt;br&gt;&lt;/td&gt;&lt;td&gt;infantry_name&lt;/td&gt;&lt;td&gt;text&lt;/td&gt;&lt;td&gt;NN&lt;/td&gt;&lt;/tr&gt;&lt;tr&gt;&lt;td&gt;FK&lt;/td&gt;&lt;td&gt;country_id&lt;/td&gt;&lt;td&gt;integer&lt;/td&gt;&lt;td&gt;NN&lt;/td&gt;&lt;/tr&gt;&lt;tr&gt;&lt;td&gt;&lt;br&gt;&lt;/td&gt;&lt;td&gt;count&lt;/td&gt;&lt;td&gt;integer&lt;/td&gt;&lt;td&gt;NN&lt;/td&gt;&lt;/tr&gt;&lt;tr&gt;&lt;td&gt;&lt;br&gt;&lt;/td&gt;&lt;td&gt;distance&lt;/td&gt;&lt;td&gt;integer&lt;/td&gt;&lt;td&gt;NN&lt;/td&gt;&lt;/tr&gt;&lt;tr&gt;&lt;td&gt;&lt;br&gt;&lt;/td&gt;&lt;td&gt;way&lt;/td&gt;&lt;td&gt;integer&lt;/td&gt;&lt;td&gt;NN&lt;/td&gt;&lt;/tr&gt;&lt;tr&gt;&lt;td&gt;&lt;br&gt;&lt;/td&gt;&lt;td&gt;error&lt;/td&gt;&lt;td&gt;integer&lt;/td&gt;&lt;td&gt;NN&lt;/td&gt;&lt;/tr&gt;&lt;tr&gt;&lt;td&gt;&lt;br&gt;&lt;/td&gt;&lt;td&gt;guard&lt;/td&gt;&lt;td&gt;boolean&lt;/td&gt;&lt;td&gt;NN&lt;/td&gt;&lt;/tr&gt;&lt;/tbody&gt;&lt;/table&gt;&lt;/div&gt;" style="verticalAlign=top;align=left;overflow=fill;html=1;whiteSpace=wrap;shadow=0;strokeColor=default;perimeterSpacing=0;strokeWidth=0;" vertex="1" parent="1">
          <mxGeometry x="40" y="141" width="244" height="173" as="geometry" />
        </mxCell>
        <mxCell id="k3SaiDffp16Y4I0LHqBq-26" value="&lt;div style=&quot;box-sizing:border-box;width:100%;background:#e4e4e4;padding:2px;&quot;&gt;artillery&lt;/div&gt;&lt;table border=&quot;1&quot; style=&quot;width: 100%; font-size: 1em; border: 1px solid rgb(255, 255, 255); border-collapse: collapse;&quot; cellpadding=&quot;2&quot; cellspacing=&quot;0&quot;&gt;&lt;tbody&gt;&lt;tr&gt;&lt;td&gt;PK&lt;/td&gt;&lt;td&gt;artillery_id&lt;/td&gt;&lt;td&gt;integer&lt;/td&gt;&lt;td&gt;NN&lt;/td&gt;&lt;/tr&gt;&lt;tr&gt;&lt;td&gt;&lt;br&gt;&lt;/td&gt;&lt;td&gt;artillery_name&lt;/td&gt;&lt;td&gt;text&lt;/td&gt;&lt;td&gt;NN&lt;/td&gt;&lt;/tr&gt;&lt;tr&gt;&lt;td&gt;FK&lt;/td&gt;&lt;td&gt;country_id&lt;/td&gt;&lt;td&gt;integer&lt;/td&gt;&lt;td&gt;NN&lt;/td&gt;&lt;/tr&gt;&lt;tr&gt;&lt;td&gt;&lt;br&gt;&lt;/td&gt;&lt;td&gt;core_distance&lt;/td&gt;&lt;td&gt;integer&lt;/td&gt;&lt;td&gt;NN&lt;/td&gt;&lt;/tr&gt;&lt;tr&gt;&lt;td&gt;&lt;br&gt;&lt;/td&gt;&lt;td&gt;core_error&lt;/td&gt;&lt;td&gt;integer&lt;/td&gt;&lt;td&gt;NN&lt;/td&gt;&lt;/tr&gt;&lt;tr&gt;&lt;td&gt;&lt;br&gt;&lt;/td&gt;&lt;td&gt;grapeshot_count&lt;/td&gt;&lt;td&gt;integer&lt;/td&gt;&lt;td&gt;NN&lt;/td&gt;&lt;/tr&gt;&lt;tr&gt;&lt;td&gt;&lt;br&gt;&lt;/td&gt;&lt;td&gt;grapeshot_distance&lt;/td&gt;&lt;td&gt;integer&lt;/td&gt;&lt;td&gt;NN&lt;/td&gt;&lt;/tr&gt;&lt;tr&gt;&lt;td&gt;&lt;br&gt;&lt;/td&gt;&lt;td&gt;grapeshot_error&lt;/td&gt;&lt;td&gt;integer&lt;/td&gt;&lt;td&gt;NN&lt;/td&gt;&lt;/tr&gt;&lt;/tbody&gt;&lt;/table&gt;" style="verticalAlign=top;align=left;overflow=fill;html=1;whiteSpace=wrap;shadow=0;strokeColor=default;perimeterSpacing=0;strokeWidth=0;" vertex="1" parent="1">
          <mxGeometry x="717" y="151" width="237" height="173" as="geometry" />
        </mxCell>
        <mxCell id="k3SaiDffp16Y4I0LHqBq-27" value="" style="edgeStyle=entityRelationEdgeStyle;fontSize=12;html=1;endArrow=ERoneToMany;startArrow=ERmandOne;rounded=0;exitX=-0.005;exitY=0.205;exitDx=0;exitDy=0;entryX=1;entryY=0.376;entryDx=0;entryDy=0;entryPerimeter=0;exitPerimeter=0;" edge="1" parent="1" source="k3SaiDffp16Y4I0LHqBq-21" target="k3SaiDffp16Y4I0LHqBq-22">
          <mxGeometry width="100" height="100" relative="1" as="geometry">
            <mxPoint x="316" y="426" as="sourcePoint" />
            <mxPoint x="416" y="326" as="targetPoint" />
          </mxGeometry>
        </mxCell>
        <mxCell id="k3SaiDffp16Y4I0LHqBq-28" value="" style="edgeStyle=entityRelationEdgeStyle;fontSize=12;html=1;endArrow=ERoneToMany;startArrow=ERmandOne;rounded=0;entryX=-0.008;entryY=0.382;entryDx=0;entryDy=0;entryPerimeter=0;exitX=1;exitY=0.25;exitDx=0;exitDy=0;" edge="1" parent="1" source="k3SaiDffp16Y4I0LHqBq-21" target="k3SaiDffp16Y4I0LHqBq-26">
          <mxGeometry width="100" height="100" relative="1" as="geometry">
            <mxPoint x="633" y="202" as="sourcePoint" />
            <mxPoint x="684" y="254" as="targetPoint" />
          </mxGeometry>
        </mxCell>
      </root>
    </mxGraphModel>
  </diagram>
</mxfile>
